<?xml version="1.0" encoding="UTF-8"?>
<svg version="1.1" xmlns="http://www.w3.org/2000/svg" width="548" height="460">
<path d="M0 0 C4.43906363 0.00228534 8.8781235 -0.00124095 13.31718636 -0.00397992 C21.98848813 -0.00840336 30.6597812 -0.00747647 39.3310833 -0.00456728 C46.38471993 -0.00229972 53.43835415 -0.00200657 60.49199104 -0.0030911 C62.0035743 -0.00332095 62.0035743 -0.00332095 63.54569459 -0.00355544 C65.59349855 -0.0038752 67.64130251 -0.00419941 69.68910646 -0.00452803 C88.84655996 -0.00737279 108.00400865 -0.00411158 127.16146135 0.00127234 C143.56391734 0.00573946 159.96636624 0.00496324 176.3688221 0.00035357 C195.46239399 -0.00500996 214.55596168 -0.00709819 233.64953423 -0.00403416 C235.68938637 -0.00371565 237.72923851 -0.00340127 239.76909065 -0.0030911 C240.77247671 -0.00293682 241.77586277 -0.00278255 242.80965447 -0.0026236 C249.84667134 -0.00176377 256.88368553 -0.00320976 263.92070198 -0.00557065 C272.50810771 -0.00838864 281.09550431 -0.00758847 289.68290901 -0.00228991 C294.05592539 0.00032027 298.4289266 0.00139821 302.80194283 -0.00193906 C322.96509858 -0.0160423 343.05187661 0.01005676 363.13054085 2.13072467 C363.13054085 2.79072467 363.13054085 3.45072467 363.13054085 4.13072467 C363.73640022 4.33826373 364.3422596 4.54580279 364.96647835 4.75963092 C383.13748001 11.44096845 395.10603671 24.70377953 403.61491585 41.56822467 C407.20720513 50.01195617 407.42201783 57.59099871 407.40469551 66.67175555 C407.40915292 68.04565588 407.41446861 69.41955364 407.42056423 70.79344767 C407.43469462 74.55455932 407.43640847 78.31558812 407.43596733 82.0767225 C407.43761995 86.13895535 407.45069484 90.20115452 407.46216011 94.26336932 C407.48497568 103.13965227 407.49292714 112.01591125 407.49798656 120.89221954 C407.50124784 126.43963499 407.50777297 131.98704353 407.51498795 137.53445506 C407.53455006 152.90802449 407.55095632 168.28158752 407.55386448 183.6551702 C407.55405205 184.63829796 407.55423962 185.62142572 407.55443287 186.63434523 C407.55479911 188.62719953 407.55516281 190.62005383 407.55552398 192.61290813 C407.5557068 193.60210058 407.55588961 194.59129302 407.55607796 195.610461 C407.55634878 197.09607099 407.55634878 197.09607099 407.55662508 198.61169332 C407.56016488 214.65103023 407.58717688 230.69023274 407.62457585 246.72952307 C407.66270744 263.21560686 407.68202231 279.70162405 407.68232399 296.1877529 C407.6829075 305.43652174 407.69133048 314.68513025 407.72032166 323.93385768 C407.74490062 331.81097532 407.75207469 339.68787417 407.73707413 347.56501985 C407.72993154 351.57914707 407.73064698 355.59284281 407.75348473 359.60692096 C407.77424755 363.29183375 407.77131596 366.97598814 407.75060988 370.66089427 C407.74552515 372.60395103 407.76476104 374.54702631 407.78527158 376.48998147 C407.66845144 388.89787471 404.05358697 404.64886765 395.38835335 414.01353717 C393.3689177 415.82210805 391.27765176 417.47620838 389.13054085 419.13072467 C388.34292366 419.80103717 387.55530647 420.47134967 386.7438221 421.16197467 C371.42272385 434.053825 354.10553506 436.76028686 334.67097664 436.62520099 C332.98122173 436.62838665 331.2914694 436.63332318 329.60172403 436.63983381 C325.00940019 436.65252939 320.41743489 436.6406283 315.82513499 436.62430525 C310.85311459 436.61104796 305.88113094 436.62107034 300.9091053 436.62806964 C291.19073083 436.63811138 281.47249335 436.62692475 271.75413592 436.60836904 C260.42683287 436.58752413 249.09955883 436.58774342 237.77224021 436.5887142 C217.56010199 436.58971365 197.34802726 436.57143862 177.13591194 436.54234576 C157.53824393 436.5141521 137.94063176 436.50000534 118.34294319 436.50133014 C117.13493473 436.50141005 115.92692627 436.50148996 114.68231149 436.5015723 C113.4763555 436.50165301 112.2703995 436.50173371 111.02789938 436.50181687 C88.68690107 436.5031974 66.34592639 436.49141453 44.00493575 436.47351044 C36.11458924 436.46748592 28.22424709 436.46535231 20.33389854 436.46444583 C10.71926571 436.46307989 1.10467275 436.45412673 -8.50994317 436.43578021 C-13.41258304 436.42656432 -18.31517201 436.42044585 -23.21782112 436.42296863 C-27.70935688 436.42516777 -32.2007803 436.41806693 -36.69229265 436.40367158 C-38.31309603 436.40006236 -39.93391109 436.39976722 -41.55471484 436.40320615 C-50.20525006 436.41952201 -58.38270418 435.99376818 -66.86945915 434.13072467 C-69.19934683 433.75909753 -71.53066323 433.44256412 -73.86945915 433.13072467 C-73.86945915 432.14072467 -73.86945915 431.15072467 -73.86945915 430.13072467 C-76.09402662 428.44584523 -76.09402662 428.44584523 -78.93195915 426.88072467 C-82.64835304 424.63659451 -85.72971374 422.50319213 -88.68195915 419.31822467 C-91.46192488 416.32338236 -93.79721856 415.02463114 -97.86945915 414.13072467 C-96.87945915 413.80072467 -95.88945915 413.47072467 -94.86945915 413.13072467 C-95.96315777 411.31188888 -97.06977307 409.50081489 -98.18195915 407.69322467 C-99.10428337 406.17922076 -99.10428337 406.17922076 -100.0452404 404.63463092 C-101.6899788 401.86801864 -101.6899788 401.86801864 -104.86945915 401.13072467 C-105.25009136 398.80463897 -105.5821586 396.47017203 -105.86945915 394.13072467 C-105.53945915 393.80072467 -105.20945915 393.47072467 -104.86945915 393.13072467 C-105.1939435 392.25123975 -105.51842785 391.37175483 -105.85274506 390.46561885 C-107.48795842 384.68234789 -107.15150949 378.73403758 -107.13688469 372.77241778 C-107.1406241 371.40620513 -107.14522678 370.03999462 -107.15061533 368.67378747 C-107.16282519 364.92935372 -107.16258724 361.18500945 -107.16022658 357.44056034 C-107.1598179 353.3981199 -107.17086263 349.35570794 -107.18034172 345.31328082 C-107.1969425 337.39633446 -107.20245088 329.47941789 -107.20356648 321.56245558 C-107.20451755 315.12441891 -107.20863082 308.68639205 -107.21496773 302.24835849 C-107.23257895 283.98350474 -107.24180698 265.71867447 -107.24030678 247.45381217 C-107.24022687 246.46950286 -107.24014695 245.48519356 -107.24006462 244.4710567 C-107.23998286 243.48554114 -107.2399011 242.50002558 -107.23981686 241.48464592 C-107.23900437 225.52151236 -107.25813292 209.55847325 -107.28634135 193.595367 C-107.31509662 177.1929459 -107.32888014 160.79057081 -107.3271538 144.38812387 C-107.32649073 135.18414366 -107.33194642 125.98026242 -107.3535099 116.77630496 C-107.37175667 108.93791923 -107.37604054 101.09967732 -107.36249106 93.26127951 C-107.35597851 89.26569391 -107.35578167 85.27038393 -107.37319756 81.27482486 C-107.38901027 77.609185 -107.38598217 73.94403741 -107.36862929 70.27840896 C-107.36414352 68.3407981 -107.37915231 66.40317146 -107.39510858 64.46562111 C-107.27932496 49.63572077 -102.17630976 35.7014038 -92.86945915 24.13072467 C-92.20945915 24.13072467 -91.54945915 24.13072467 -90.86945915 24.13072467 C-90.52527946 23.27607623 -90.52527946 23.27607623 -90.17414665 22.40416217 C-84.22390507 12.03577714 -70.12890088 6.34164756 -59.30695915 2.81822467 C-54.2289124 1.52855383 -49.36067784 0.77708196 -44.12043571 0.53334308 C-42.91941153 0.47480472 -42.91941153 0.47480472 -41.69412422 0.41508377 C-27.80964696 -0.16743756 -13.89410016 -0.01060328 0 0 Z M-102.86945915 399.13072467 C-101.86945915 401.13072467 -101.86945915 401.13072467 -101.86945915 401.13072467 Z M-70.86945915 431.13072467 C-70.20945915 431.79072467 -69.54945915 432.45072467 -68.86945915 433.13072467 C-68.86945915 432.47072467 -68.86945915 431.81072467 -68.86945915 431.13072467 C-69.52945915 431.13072467 -70.18945915 431.13072467 -70.86945915 431.13072467 Z " fill="#FDF1CF" transform="translate(124.86945915222168,13.869275331497192)"/>
<path d="M0 0 C1.3440199 -0.00967334 1.3440199 -0.00967334 2.71519172 -0.0195421 C3.6955304 -0.01644489 4.67586908 -0.01334769 5.68591499 -0.01015663 C6.7304887 -0.01468774 7.77506241 -0.01921886 8.85128987 -0.02388728 C12.36270727 -0.03657998 15.87397055 -0.03490776 19.3854084 -0.03325844 C21.89840076 -0.03924062 24.41139127 -0.04604544 26.92437935 -0.05361366 C33.04867295 -0.06947237 39.17290979 -0.07572339 45.297222 -0.07683842 C50.27515133 -0.07778867 55.25306796 -0.08189779 60.23099327 -0.08823967 C74.34338042 -0.10585304 88.45573715 -0.11507836 102.56813537 -0.11357872 C103.32896828 -0.11349881 104.08980119 -0.1134189 104.87368965 -0.11333656 C106.01633192 -0.11321392 106.01633192 -0.11321392 107.18205787 -0.1130888 C119.52886813 -0.11227581 131.87555642 -0.13141641 144.22233139 -0.1596133 C156.89897481 -0.18833516 169.57555874 -0.20215399 182.25223553 -0.20042574 C189.36962479 -0.19976161 196.48688618 -0.20526399 203.60424614 -0.22678185 C210.29701942 -0.24688634 216.98947762 -0.24632714 223.68227959 -0.23174858 C226.14052919 -0.22965243 228.59879547 -0.23440904 231.05701637 -0.2464695 C234.40938513 -0.26185323 237.76081329 -0.25265842 241.11316109 -0.23720741 C242.08903832 -0.24749454 243.06491556 -0.25778167 244.07036483 -0.26838052 C249.71654087 -0.21075784 253.09727783 0.39653758 257.52652168 4.25726891 C259.74024419 7.57785267 259.77742526 8.58889438 259.78099728 12.45383072 C259.78682947 13.536573 259.79266166 14.61931528 259.79867059 15.73486793 C259.79489127 16.92891278 259.79111194 18.12295763 259.78721809 19.35318565 C259.79104364 20.61812233 259.79486919 21.88305901 259.79881066 23.1863271 C259.80913032 26.70441484 259.8068988 30.22240113 259.80263007 33.74049735 C259.80016999 37.53199802 259.80916808 41.3234738 259.81666756 45.11496544 C259.82943695 52.54583681 259.83120544 59.97667209 259.82886729 67.40755259 C259.82708636 73.4462492 259.82882895 79.48493484 259.83309174 85.52363014 C259.83368692 86.38214204 259.83428211 87.24065394 259.83489534 88.12518135 C259.83610706 89.8690981 259.83732119 91.61301484 259.83853772 93.35693158 C259.84942203 109.72311693 259.84724664 126.08928168 259.84115287 142.45546819 C259.83598375 157.43486741 259.84723744 172.41420159 259.86625109 187.39358793 C259.88561346 202.7652719 259.89388825 218.13692508 259.89012784 233.50862134 C259.88821325 242.14229542 259.89072829 250.77591416 259.90484238 259.40957832 C259.91673683 266.76006059 259.91818294 274.11045344 259.90605221 281.46093689 C259.90014966 285.21242893 259.89910182 288.96375728 259.91105461 292.71523857 C259.92385336 296.77941804 259.91348164 300.84320535 259.90074348 304.90738487 C259.90811777 306.09696828 259.91549205 307.28655168 259.9230898 308.51218307 C259.91588326 309.60014084 259.90867672 310.68809862 259.90125179 311.80902481 C259.90130681 312.74720641 259.90136182 313.68538801 259.90141851 314.65199935 C259.44502966 317.82358121 258.40509877 319.67831697 256.52652168 322.25726891 C253.38913148 324.34886237 252.68107338 324.5084691 249.1108284 324.51733112 C247.74796965 324.52792951 247.74796965 324.52792951 246.3575784 324.53874201 C244.85833225 324.53511938 244.85833225 324.53511938 243.32879829 324.53142357 C242.26803923 324.53666025 241.20728018 324.54189693 240.1143769 324.54729229 C236.54224823 324.56235375 232.97026202 324.56299879 229.39810371 324.56366539 C226.84422754 324.5712827 224.29035366 324.57970945 221.73648262 324.58888817 C214.78612643 324.61088141 207.83581991 324.61965993 200.88543367 324.62471461 C196.54670474 324.62797 192.2079847 324.63449149 187.86926079 324.641716 C175.85944911 324.66128286 163.84964569 324.67768678 151.83981705 324.68059254 C150.68674342 324.68087389 150.68674342 324.68087389 149.51037537 324.68116093 C147.95196589 324.68152718 146.3935564 324.68189088 144.83514692 324.68225204 C144.0615379 324.68243485 143.28792887 324.68261766 142.49087715 324.68280602 C141.71632537 324.68298656 140.94177358 324.68316711 140.14375053 324.68335313 C127.58924775 324.68689585 115.03491638 324.71392385 102.48047306 324.7513039 C89.59481332 324.78936354 76.7092387 324.80874984 63.82352149 324.80905205 C56.58706735 324.80963712 49.35081771 324.8181611 42.11441612 324.84704971 C35.30999009 324.8740887 28.50603799 324.87548853 21.70155525 324.85939407 C19.20095501 324.85757205 16.70033193 324.8643376 14.19978142 324.88021278 C10.79210534 324.90053191 7.38586834 324.89020348 3.97821236 324.87199974 C2.48565837 324.89179969 2.48565837 324.89179969 0.96295178 324.91199964 C-3.66969066 324.85527645 -5.78314898 324.78235818 -9.56420898 321.90634823 C-12.24009359 318.19360302 -12.59914078 315.55087672 -12.60769939 311.09473515 C-12.61215724 310.01957636 -12.61661508 308.94441757 -12.62120801 307.83667821 C-12.62102365 306.65109737 -12.62083929 305.46551654 -12.62064934 304.24400902 C-12.62432603 302.98794501 -12.62800271 301.731881 -12.63179082 300.43775445 C-12.64181395 296.94442985 -12.6455281 293.45112243 -12.64818013 289.95778549 C-12.65208218 286.19285468 -12.66166049 282.42793749 -12.67039299 278.66301537 C-12.69015878 269.56812995 -12.70022312 260.47324341 -12.70912078 251.37834188 C-12.71350293 247.09696392 -12.71886988 242.81558719 -12.72410965 238.53421021 C-12.74112099 224.30517871 -12.75561614 210.07614799 -12.76285839 195.84710789 C-12.76476832 192.15431975 -12.76668865 188.46153163 -12.76864433 184.76874352 C-12.76912807 183.85090453 -12.76961181 182.93306555 -12.77011021 181.98741326 C-12.77841421 167.11214154 -12.80375778 152.23695013 -12.83622501 137.36171349 C-12.86927528 122.09512039 -12.88730525 106.82856814 -12.89050263 91.56193906 C-12.89266947 82.98800794 -12.90144356 74.41419399 -12.92696381 65.8402977 C-12.94864295 58.53997339 -12.95673496 51.23979473 -12.94699702 43.93944188 C-12.94244437 40.21409866 -12.94439419 36.48905611 -12.96375847 32.76375389 C-12.98456526 28.72611634 -12.97443071 24.68914905 -12.96122551 20.65147972 C-12.97219476 19.47259105 -12.983164 18.29370239 -12.99446565 17.07908982 C-12.94535755 10.881228 -12.8236465 6.86389041 -8.47347832 2.25726891 C-5.55642816 0.48296671 -3.3941668 0.00618695 0 0 Z " fill="#1A1D1D" transform="translate(151.47347831726074,70.74273109436035)"/>
<path d="M0 0 C4.43906363 0.00228534 8.8781235 -0.00124095 13.31718636 -0.00397992 C21.98848813 -0.00840336 30.6597812 -0.00747647 39.3310833 -0.00456728 C46.38471993 -0.00229972 53.43835415 -0.00200657 60.49199104 -0.0030911 C62.0035743 -0.00332095 62.0035743 -0.00332095 63.54569459 -0.00355544 C65.59349855 -0.0038752 67.64130251 -0.00419941 69.68910646 -0.00452803 C88.84655996 -0.00737279 108.00400865 -0.00411158 127.16146135 0.00127234 C143.56391734 0.00573946 159.96636624 0.00496324 176.3688221 0.00035357 C195.46239399 -0.00500996 214.55596168 -0.00709819 233.64953423 -0.00403416 C235.68938637 -0.00371565 237.72923851 -0.00340127 239.76909065 -0.0030911 C240.77247671 -0.00293682 241.77586277 -0.00278255 242.80965447 -0.0026236 C249.84667134 -0.00176377 256.88368553 -0.00320976 263.92070198 -0.00557065 C272.50810771 -0.00838864 281.09550431 -0.00758847 289.68290901 -0.00228991 C294.05592539 0.00032027 298.4289266 0.00139821 302.80194283 -0.00193906 C322.96509858 -0.0160423 343.05187661 0.01005676 363.13054085 2.13072467 C363.13054085 2.79072467 363.13054085 3.45072467 363.13054085 4.13072467 C363.73640022 4.33826373 364.3422596 4.54580279 364.96647835 4.75963092 C383.13748001 11.44096845 395.10603671 24.70377953 403.61491585 41.56822467 C407.20720513 50.01195617 407.42201783 57.59099871 407.40469551 66.67175555 C407.40915292 68.04565588 407.41446861 69.41955364 407.42056423 70.79344767 C407.43469462 74.55455932 407.43640847 78.31558812 407.43596733 82.0767225 C407.43761995 86.13895535 407.45069484 90.20115452 407.46216011 94.26336932 C407.48497568 103.13965227 407.49292714 112.01591125 407.49798656 120.89221954 C407.50124784 126.43963499 407.50777297 131.98704353 407.51498795 137.53445506 C407.53455006 152.90802449 407.55095632 168.28158752 407.55386448 183.6551702 C407.55405205 184.63829796 407.55423962 185.62142572 407.55443287 186.63434523 C407.55479911 188.62719953 407.55516281 190.62005383 407.55552398 192.61290813 C407.5557068 193.60210058 407.55588961 194.59129302 407.55607796 195.610461 C407.55634878 197.09607099 407.55634878 197.09607099 407.55662508 198.61169332 C407.56016488 214.65103023 407.58717688 230.69023274 407.62457585 246.72952307 C407.66270744 263.21560686 407.68202231 279.70162405 407.68232399 296.1877529 C407.6829075 305.43652174 407.69133048 314.68513025 407.72032166 323.93385768 C407.74490062 331.81097532 407.75207469 339.68787417 407.73707413 347.56501985 C407.72993154 351.57914707 407.73064698 355.59284281 407.75348473 359.60692096 C407.77424755 363.29183375 407.77131596 366.97598814 407.75060988 370.66089427 C407.74552515 372.60395103 407.76476104 374.54702631 407.78527158 376.48998147 C407.66845144 388.89787471 404.05358697 404.64886765 395.38835335 414.01353717 C393.3689177 415.82210805 391.27765176 417.47620838 389.13054085 419.13072467 C388.34292366 419.80103717 387.55530647 420.47134967 386.7438221 421.16197467 C371.42272385 434.053825 354.10553506 436.76028686 334.67097664 436.62520099 C332.98122173 436.62838665 331.2914694 436.63332318 329.60172403 436.63983381 C325.00940019 436.65252939 320.41743489 436.6406283 315.82513499 436.62430525 C310.85311459 436.61104796 305.88113094 436.62107034 300.9091053 436.62806964 C291.19073083 436.63811138 281.47249335 436.62692475 271.75413592 436.60836904 C260.42683287 436.58752413 249.09955883 436.58774342 237.77224021 436.5887142 C217.56010199 436.58971365 197.34802726 436.57143862 177.13591194 436.54234576 C157.53824393 436.5141521 137.94063176 436.50000534 118.34294319 436.50133014 C117.13493473 436.50141005 115.92692627 436.50148996 114.68231149 436.5015723 C113.4763555 436.50165301 112.2703995 436.50173371 111.02789938 436.50181687 C88.68690107 436.5031974 66.34592639 436.49141453 44.00493575 436.47351044 C36.11458924 436.46748592 28.22424709 436.46535231 20.33389854 436.46444583 C10.71926571 436.46307989 1.10467275 436.45412673 -8.50994317 436.43578021 C-13.41258304 436.42656432 -18.31517201 436.42044585 -23.21782112 436.42296863 C-27.70935688 436.42516777 -32.2007803 436.41806693 -36.69229265 436.40367158 C-38.31309603 436.40006236 -39.93391109 436.39976722 -41.55471484 436.40320615 C-50.20525006 436.41952201 -58.38270418 435.99376818 -66.86945915 434.13072467 C-69.19934683 433.75909753 -71.53066323 433.44256412 -73.86945915 433.13072467 C-73.86945915 432.14072467 -73.86945915 431.15072467 -73.86945915 430.13072467 C-76.09402662 428.44584523 -76.09402662 428.44584523 -78.93195915 426.88072467 C-82.64835304 424.63659451 -85.72971374 422.50319213 -88.68195915 419.31822467 C-91.46192488 416.32338236 -93.79721856 415.02463114 -97.86945915 414.13072467 C-96.87945915 413.80072467 -95.88945915 413.47072467 -94.86945915 413.13072467 C-95.96315777 411.31188888 -97.06977307 409.50081489 -98.18195915 407.69322467 C-99.10428337 406.17922076 -99.10428337 406.17922076 -100.0452404 404.63463092 C-101.6899788 401.86801864 -101.6899788 401.86801864 -104.86945915 401.13072467 C-105.25009136 398.80463897 -105.5821586 396.47017203 -105.86945915 394.13072467 C-105.53945915 393.80072467 -105.20945915 393.47072467 -104.86945915 393.13072467 C-105.1939435 392.25123975 -105.51842785 391.37175483 -105.85274506 390.46561885 C-107.48795842 384.68234789 -107.15150949 378.73403758 -107.13688469 372.77241778 C-107.1406241 371.40620513 -107.14522678 370.03999462 -107.15061533 368.67378747 C-107.16282519 364.92935372 -107.16258724 361.18500945 -107.16022658 357.44056034 C-107.1598179 353.3981199 -107.17086263 349.35570794 -107.18034172 345.31328082 C-107.1969425 337.39633446 -107.20245088 329.47941789 -107.20356648 321.56245558 C-107.20451755 315.12441891 -107.20863082 308.68639205 -107.21496773 302.24835849 C-107.23257895 283.98350474 -107.24180698 265.71867447 -107.24030678 247.45381217 C-107.24022687 246.46950286 -107.24014695 245.48519356 -107.24006462 244.4710567 C-107.23998286 243.48554114 -107.2399011 242.50002558 -107.23981686 241.48464592 C-107.23900437 225.52151236 -107.25813292 209.55847325 -107.28634135 193.595367 C-107.31509662 177.1929459 -107.32888014 160.79057081 -107.3271538 144.38812387 C-107.32649073 135.18414366 -107.33194642 125.98026242 -107.3535099 116.77630496 C-107.37175667 108.93791923 -107.37604054 101.09967732 -107.36249106 93.26127951 C-107.35597851 89.26569391 -107.35578167 85.27038393 -107.37319756 81.27482486 C-107.38901027 77.609185 -107.38598217 73.94403741 -107.36862929 70.27840896 C-107.36414352 68.3407981 -107.37915231 66.40317146 -107.39510858 64.46562111 C-107.27932496 49.63572077 -102.17630976 35.7014038 -92.86945915 24.13072467 C-92.20945915 24.13072467 -91.54945915 24.13072467 -90.86945915 24.13072467 C-90.52527946 23.27607623 -90.52527946 23.27607623 -90.17414665 22.40416217 C-84.22390507 12.03577714 -70.12890088 6.34164756 -59.30695915 2.81822467 C-54.2289124 1.52855383 -49.36067784 0.77708196 -44.12043571 0.53334308 C-42.91941153 0.47480472 -42.91941153 0.47480472 -41.69412422 0.41508377 C-27.80964696 -0.16743756 -13.89410016 -0.01060328 0 0 Z M-71.86945915 38.13072467 C-80.03525636 48.32349281 -82.32018382 57.49849639 -82.25041008 70.28779864 C-82.25509005 71.6065658 -82.25977002 72.92533295 -82.26459181 74.28406274 C-82.2770784 77.92946875 -82.27094218 81.57463816 -82.26163316 85.22004485 C-82.25483322 89.15743532 -82.26532866 93.0947857 -82.27357292 97.03216815 C-82.28690312 104.74011258 -82.28403548 112.4479693 -82.275335 120.15591715 C-82.26855508 126.42233395 -82.26764307 132.68872619 -82.27090645 138.9551456 C-82.27136615 139.84761613 -82.27182585 140.74008666 -82.27229948 141.65960176 C-82.27325867 143.47276318 -82.27423131 145.28592459 -82.27521725 147.099086 C-82.28376931 164.09638675 -82.27394041 181.09363894 -82.25781615 198.09093173 C-82.24441774 212.66574381 -82.24673748 227.2404842 -82.26057243 241.81529498 C-82.27663944 258.74939462 -82.28294051 275.68345169 -82.27373564 292.61755788 C-82.27278002 294.42459599 -82.27183691 296.23163409 -82.27090645 298.03867221 C-82.27044362 298.9277128 -82.2699808 299.8167534 -82.26950394 300.73273461 C-82.26691707 306.98838787 -82.27127862 313.24401405 -82.27834511 319.49966311 C-82.28677296 327.12802946 -82.28445319 334.75630324 -82.26850288 342.38465904 C-82.26063671 346.27451711 -82.25750013 350.16422104 -82.26745033 354.05407786 C-82.27643252 357.61953766 -82.27140694 361.18470136 -82.25551768 364.75013454 C-82.25061364 366.64118752 -82.26033494 368.53226129 -82.27068937 370.42329228 C-82.18615871 382.74229756 -79.30590882 392.17986089 -70.8655529 401.29478717 C-62.33756719 409.44137817 -52.82153895 413.24739648 -41.10605431 413.26494575 C-40.10034864 413.26847409 -40.10034864 413.26847409 -39.07432568 413.27207372 C-36.82352538 413.27874043 -34.57278313 413.2783062 -32.3219738 413.27789569 C-30.69350169 413.28119577 -29.0650304 413.28492164 -27.43656015 413.28903717 C-22.95793041 413.29904897 -18.47931407 413.30277265 -14.00067472 413.30542648 C-9.17156054 413.30933198 -4.34245695 413.31891017 0.48665047 413.32763934 C12.15102488 413.34739711 23.81540015 413.35746923 35.47978711 413.36636713 C40.97412564 413.37075128 46.46846321 413.37611777 51.96280098 413.381356 C70.22973366 413.39836782 88.49666574 413.41286161 106.76360512 413.42010474 C111.50343006 413.42201461 116.24325499 413.42393494 120.98307991 413.42589068 C122.16112582 413.42637442 123.33917172 413.42685816 124.55291599 413.42735656 C143.6330319 413.43565543 162.71308509 413.46099016 181.79317361 413.49347136 C201.38668095 413.52655437 220.98015643 413.54455464 240.57369184 413.54774898 C251.57293112 413.54991296 262.57207893 413.55864517 273.57129097 413.58421016 C282.93949985 413.6059341 292.30759504 413.61395922 301.67582625 413.60424338 C306.45313901 413.59970358 311.2302173 413.60156633 316.00749779 413.62100482 C320.38744625 413.63867216 324.76698981 413.63760993 329.14694279 413.62210753 C330.72508105 413.61973686 332.30324761 413.62402672 333.88134271 413.63593618 C348.6964951 413.74074868 360.87490162 411.23858489 372.13054085 401.13072467 C379.56446319 393.41803024 383.24809919 383.22273532 383.26196861 372.59550548 C383.26580976 371.48809752 383.2696509 370.38068957 383.27360845 369.2397238 C383.27230872 367.42267917 383.27230872 367.42267917 383.27098274 365.56892657 C383.27395386 364.27792957 383.27692499 362.98693258 383.27998614 361.65681446 C383.28804469 358.07504506 383.28984508 354.49329572 383.29058361 350.91151834 C383.29243618 347.04768693 383.2999846 343.18386587 383.30671883 339.32004046 C383.32029499 330.87152173 383.32632588 322.42300774 383.33072948 313.97447991 C383.33349337 308.6973076 383.33773102 303.42013711 383.34223366 298.14296603 C383.35442586 283.52697815 383.36472496 268.91099174 383.36810875 254.29499888 C383.36832832 253.35970891 383.36854788 252.42441893 383.3687741 251.46078683 C383.36899238 250.52327887 383.36921066 249.58577091 383.36943555 248.61985362 C383.36987901 246.72015699 383.37032558 244.82046036 383.37077522 242.92076373 C383.37099665 241.97845177 383.37121808 241.03613981 383.37144622 240.06527294 C383.37539279 224.80229773 383.39284272 209.5393703 383.41613474 194.27641355 C383.43986494 178.5995382 383.45231138 162.92268682 383.45347667 147.24579322 C383.45439254 138.44651452 383.46012266 129.64729806 383.47829628 120.84803653 C383.49371985 113.35395148 383.49880447 105.85994792 383.49055818 98.36585002 C383.48665952 94.54473832 383.48754269 90.7237906 383.50161552 86.90269923 C383.51675773 82.75315678 383.50846469 78.60398155 383.49803352 74.45442462 C383.50608993 73.25644586 383.51414633 72.05846711 383.52244687 70.82418597 C383.44918555 58.33884496 380.68246918 47.28512917 372.09147835 37.90416217 C363.43556118 29.73762548 353.12186275 24.8876218 341.11824703 24.87345576 C340.4451693 24.86994969 339.77209157 24.86644361 339.07861754 24.86283129 C336.83093394 24.85355275 334.58351146 24.85843134 332.33581734 24.86329913 C330.70490518 24.85956107 329.07399481 24.85495893 327.44308728 24.84956849 C322.96702627 24.83734216 318.49104003 24.83759853 314.01496613 24.83995724 C309.18521863 24.8403655 304.35549508 24.8293253 299.52575874 24.8198421 C290.06507618 24.80323278 280.60441855 24.79773257 271.14372263 24.79661734 C263.45234072 24.79566677 255.76096702 24.79155601 248.06958771 24.78521609 C226.25806728 24.76760333 204.44656654 24.7583772 182.63503895 24.75987704 C180.87142933 24.75999691 180.87142933 24.75999691 179.07219124 24.7601192 C177.30642542 24.76024184 177.30642542 24.76024184 175.50498756 24.76036696 C156.43078585 24.76117971 137.35666313 24.74204481 118.28248427 24.71384247 C98.69230411 24.68510602 79.10216246 24.67130261 59.51196069 24.67303002 C48.51558324 24.67369369 37.51928859 24.66821145 26.52293015 24.64667392 C17.15949257 24.62845207 7.79617531 24.62412302 -1.56727233 24.63769276 C-6.34244518 24.64421751 -11.11738725 24.64435744 -15.89253807 24.62698627 C-20.26927795 24.61122857 -24.64560459 24.61414663 -29.02233455 24.63155453 C-30.60039215 24.63461851 -32.17848079 24.63101484 -33.75650176 24.61983438 C-48.96973107 24.51923947 -60.67683481 27.52037558 -71.86945915 38.13072467 Z M-102.86945915 399.13072467 C-101.86945915 401.13072467 -101.86945915 401.13072467 -101.86945915 401.13072467 Z M-70.86945915 431.13072467 C-70.20945915 431.79072467 -69.54945915 432.45072467 -68.86945915 433.13072467 C-68.86945915 432.47072467 -68.86945915 431.81072467 -68.86945915 431.13072467 C-69.52945915 431.13072467 -70.18945915 431.13072467 -70.86945915 431.13072467 Z " fill="#1B1E1D" transform="translate(124.86945915222168,13.869275331497192)"/>
<path d="M0 0 C1.01280029 0.61149902 2.02560059 1.22299805 3.0690918 1.85302734 C3.63200928 2.18806778 4.19492676 2.52310822 4.77490234 2.86830139 C6.61247647 3.96482551 8.44009466 5.07692172 10.26831055 6.18896484 C11.56137632 6.96349228 12.85525361 7.73666637 14.14990234 8.50854492 C16.13805377 9.69419055 18.12563166 10.88070006 20.110672 12.07154846 C26.4525847 15.87570195 32.85336886 19.57169691 39.26831055 23.25146484 C47.51345749 27.99524802 55.74333088 32.76385043 63.95581055 37.56396484 C72.27330625 42.42503482 80.60796564 47.25520405 88.95581055 52.06396484 C97.71424081 57.11198879 106.46722658 62.1691473 115.20581055 67.25146484 C116.19967773 67.82767578 117.19354492 68.40388672 118.2175293 68.99755859 C132.8881775 77.54356726 132.8881775 77.54356726 134.95581055 81.56396484 C135.61415302 86.00777655 135.45507913 87.8713762 132.80322266 91.55004883 C130.1821736 94.5289595 127.35548545 96.43952859 123.8972168 98.41162109 C123.32044189 98.74510056 122.74366699 99.07858002 122.14941406 99.42216492 C120.27831432 100.50100213 118.39850903 101.56357938 116.51831055 102.62646484 C115.2056648 103.38010297 113.89374155 104.1350008 112.58251953 104.89111328 C109.94659628 106.40998387 107.30785151 107.92375027 104.66674805 109.43359375 C99.58709574 112.34273967 94.55143075 115.32523209 89.51831055 118.31396484 C87.73979189 119.36626315 85.96114712 120.41834835 84.18237305 121.47021484 C82.4401447 122.50139584 80.69795699 123.53264548 78.95581055 124.56396484 C66.29873695 132.05672478 53.62681225 139.52333569 40.93151855 146.95114136 C34.06939852 150.96634977 27.21623863 154.99555865 20.38549805 159.06396484 C19.46630836 159.61095284 19.46630836 159.61095284 18.52854919 160.16899109 C15.61191524 161.90490379 12.69710097 163.64367155 9.78515625 165.38745117 C-5.57579935 174.53949168 -5.57579935 174.53949168 -10.79418945 174.62646484 C-14.79092421 173.31984002 -15.79665834 172.07561201 -18.04418945 168.56396484 C-18.55034733 165.40423679 -18.55034733 165.40423679 -18.55885315 161.7769928 C-18.56579868 161.10725148 -18.57274421 160.43751016 -18.57990021 159.74747366 C-18.5981512 157.51026233 -18.58791219 155.27411375 -18.57763672 153.03686523 C-18.58469623 151.43011177 -18.59344139 149.82336496 -18.60374451 148.21662903 C-18.62624529 143.85704816 -18.62329717 139.49783022 -18.61442304 135.1382134 C-18.60931254 131.49749711 -18.61660623 127.856849 -18.62389511 124.21613973 C-18.64089643 115.62669856 -18.6373261 107.03743503 -18.62060547 98.44799805 C-18.60368355 89.58929029 -18.61951899 80.73107526 -18.65182835 71.87242132 C-18.67852651 64.26376007 -18.68579966 56.65525217 -18.67731327 49.04654878 C-18.67238472 44.50347137 -18.67459564 39.96069042 -18.69510078 35.41765022 C-18.71346155 31.14517821 -18.70749485 26.87341473 -18.68290138 22.60098076 C-18.67789468 21.0344821 -18.68137973 19.46792942 -18.69404984 17.901474 C-18.71000236 15.75947743 -18.69501425 13.61980796 -18.67237854 11.47792053 C-18.67179223 10.28055299 -18.67120592 9.08318544 -18.67060184 7.84953403 C-17.82231234 3.40020658 -16.24386694 1.74206286 -13.04418945 -1.43603516 C-8.29914069 -3.01771808 -4.4725116 -2.1098174 0 0 Z " fill="#FDF1CE" transform="translate(224.044189453125,146.43603515625)"/>
<path d="M0 0 C2.02055882 -0.01940979 4.0370377 -0.08144946 6.05664062 -0.14453125 C7.33539063 -0.15484375 8.61414063 -0.16515625 9.93164062 -0.17578125 C11.10130371 -0.19447266 12.2709668 -0.21316406 13.47607422 -0.23242188 C16.98015688 0.55259588 18.62100217 1.66811327 20.73937988 4.58624268 C22.50738225 8.23111802 22.34897353 11.9129047 22.28710938 15.89453125 C22.28952133 16.78659271 22.29193329 17.67865417 22.29441833 18.5977478 C22.29344243 20.47536688 22.28011023 22.35301564 22.25512695 24.23046875 C22.22072243 27.10385627 22.23450416 29.97418218 22.25390625 32.84765625 C22.24700992 34.67579433 22.23733946 36.50392449 22.22460938 38.33203125 C22.22956924 39.18938873 22.23452911 40.04674622 22.23963928 40.93008423 C22.12262856 46.84982208 22.12262856 46.84982208 19.81030273 49.98974609 C14.4684255 53.68997325 8.01988332 52.70349932 1.78320312 52.73046875 C0.59855469 52.75109375 -0.58609375 52.77171875 -1.80664062 52.79296875 C-2.95003906 52.798125 -4.0934375 52.80328125 -5.27148438 52.80859375 C-6.83745361 52.8226123 -6.83745361 52.8226123 -8.43505859 52.83691406 C-12.45877584 52.3434967 -15.11752084 51.04622054 -17.63549805 47.82592773 C-18.71601698 44.23776827 -18.64683611 40.66667784 -18.64257812 36.953125 C-18.64686325 36.12719345 -18.65114838 35.3012619 -18.65556335 34.45030212 C-18.66129753 32.70621659 -18.66181364 30.96210714 -18.6574707 29.21801758 C-18.65431202 26.55573551 -18.67777593 23.89456654 -18.703125 21.23242188 C-18.70539829 19.53515765 -18.70610135 17.83789044 -18.70507812 16.140625 C-18.71428787 15.34777603 -18.72349762 14.55492706 -18.73298645 13.73805237 C-18.69488824 9.16599054 -18.30413514 6.18827885 -15.34179688 2.48046875 C-10.61694771 -0.66943069 -5.56358742 0.03237781 0 0 Z " fill="#191B1B" transform="translate(89.341796875,161.51953125)"/>
<path d="M0 0 C1.28003906 -0.03287109 2.56007813 -0.06574219 3.87890625 -0.09960938 C14.37826814 -0.15995054 14.37826814 -0.15995054 17.4453125 2.83984375 C20.25594066 7.18651288 20.30048983 10.44240941 20.328125 15.515625 C20.33382507 16.31981873 20.33952515 17.12401245 20.34539795 17.95257568 C20.35485301 19.65733524 20.36138394 21.36211311 20.36523438 23.06689453 C20.37491025 25.66341544 20.40591563 28.2591347 20.4375 30.85546875 C20.44403319 32.51301614 20.44928242 34.17056919 20.453125 35.828125 C20.4654718 36.60021301 20.4778186 37.37230103 20.49053955 38.16778564 C20.47093125 42.96260801 19.86946264 46.33242855 17.125 50.4375 C12.52143371 53.84493648 6.14301666 52.76547225 0.6875 52.75 C-0.44494141 52.76611328 -1.57738281 52.78222656 -2.74414062 52.79882812 C-3.83791016 52.79947266 -4.93167969 52.80011719 -6.05859375 52.80078125 C-7.05431396 52.80376221 -8.05003418 52.80674316 -9.07592773 52.80981445 C-13.4316275 52.2304475 -15.89138353 50.63592154 -18.66259766 47.25952148 C-20.24230324 43.58255473 -20.30558642 40.21769476 -20.2734375 36.28515625 C-20.27630768 35.50740341 -20.27917786 34.72965057 -20.28213501 33.92832947 C-20.28417025 32.28855661 -20.27867823 30.64875918 -20.26611328 29.0090332 C-20.25007272 26.51132358 -20.26596809 24.01523726 -20.28515625 21.51757812 C-20.2831733 19.91926729 -20.27932854 18.32095746 -20.2734375 16.72265625 C-20.27951019 15.98185318 -20.28558289 15.24105011 -20.2918396 14.47779846 C-20.22812624 9.73352764 -19.43041641 6.44473816 -16.875 2.4375 C-11.82467311 -0.92938459 -5.93206081 0.02672099 0 0 Z " fill="#191B1A" transform="translate(458.875,161.5625)"/>
<path d="M0 0 C1.03846069 0.0002417 1.03846069 0.0002417 2.09790039 0.00048828 C4.1989137 -0.00386916 6.29779837 -0.04013341 8.3984375 -0.078125 C9.74022721 -0.08399655 11.08202688 -0.08796368 12.42382812 -0.08984375 C13.64175049 -0.09806152 14.85967285 -0.1062793 16.11450195 -0.11474609 C20.02203179 0.46232139 21.65576481 1.58058732 24.40429688 4.37109375 C25.63616839 8.06670829 25.58578387 11.512691 25.60742188 15.36328125 C25.61312195 16.14623566 25.61882202 16.92919006 25.62469482 17.73587036 C25.63413532 19.39177096 25.64067503 21.04769026 25.64453125 22.70361328 C25.6542344 25.22982741 25.6852647 27.75522683 25.71679688 30.28125 C25.72332763 31.89192226 25.72857782 33.50260033 25.73242188 35.11328125 C25.74476868 35.86551971 25.75711548 36.61775818 25.76983643 37.39279175 C25.75077057 41.90775223 25.22509603 44.8025432 22.40429688 48.37109375 C17.67788219 51.52203687 12.62493389 50.74304801 7.0625 50.74169922 C5.04275687 50.74606466 3.02521478 50.78236951 1.00585938 50.8203125 C-0.27289063 50.82417969 -1.55164063 50.82804687 -2.86914062 50.83203125 C-4.62363525 50.84435791 -4.62363525 50.84435791 -6.41357422 50.85693359 C-10.2287965 50.27443457 -11.86516716 49.04312267 -14.59570312 46.37109375 C-16.18576844 43.19096312 -15.77987389 39.75138718 -15.79882812 36.2578125 C-15.8045282 35.4512471 -15.81022827 34.6446817 -15.81610107 33.81367493 C-15.82555508 32.10471917 -15.83208664 30.39574515 -15.8359375 28.68676758 C-15.84562632 26.07926334 -15.87663812 23.47255297 -15.90820312 20.86523438 C-15.91473497 19.20443176 -15.91998473 17.54362351 -15.92382812 15.8828125 C-15.94234833 14.71693855 -15.94234833 14.71693855 -15.96124268 13.5275116 C-15.91279251 1.67876306 -10.36328085 0.07610657 0 0 Z " fill="#1B1E1E" transform="translate(86.595703125,344.62890625)"/>
<path d="M0 0 C1.11955078 -0.02835937 2.23910156 -0.05671875 3.39257812 -0.0859375 C12.57197923 -0.10772836 12.57197923 -0.10772836 16.28515625 2.90625 C19.95592699 7.0870249 19.73656337 10.25674828 19.765625 15.61328125 C19.77132507 16.41984665 19.77702515 17.22641205 19.78289795 18.05741882 C19.79235195 19.76637458 19.79888352 21.4753486 19.80273438 23.18432617 C19.8124232 25.79183041 19.843435 28.39854078 19.875 31.00585938 C19.88153185 32.66666199 19.88678161 34.32747024 19.890625 35.98828125 C19.9029718 36.76553055 19.9153186 37.54277985 19.92803955 38.34358215 C19.90939023 42.90437489 19.50311054 45.9412967 16.5625 49.5 C11.75198032 52.92206253 5.25951592 51.82783619 -0.375 51.8125 C-1.55513672 51.82861328 -2.73527344 51.84472656 -3.95117188 51.86132812 C-5.65950195 51.86229492 -5.65950195 51.86229492 -7.40234375 51.86328125 C-8.95876587 51.86775269 -8.95876587 51.86775269 -10.54663086 51.87231445 C-13.92101541 51.43772815 -15.74764087 50.56698744 -18.4375 48.5 C-21.17048857 44.94696013 -20.74349105 40.70375304 -20.73828125 36.41015625 C-20.74256638 35.62861679 -20.7468515 34.84707733 -20.75126648 34.04185486 C-20.75699915 32.39192675 -20.75751787 30.74197337 -20.75317383 29.09204102 C-20.75001517 26.57459169 -20.77348036 24.05831966 -20.79882812 21.54101562 C-20.80110145 19.93489731 -20.80180446 18.32877585 -20.80078125 16.72265625 C-20.809991 15.97355484 -20.81920074 15.22445343 -20.82868958 14.45265198 C-20.78904009 9.94930998 -20.32644526 7.00842718 -17.4375 3.5 C-12.0388139 -0.63463388 -6.52921103 -0.01498385 0 0 Z " fill="#1B1C1C" transform="translate(459.4375,343.5)"/>
<path d="M0 0 C2.02011842 -0.0118859 4.03716794 -0.06106081 6.05664062 -0.11157227 C7.33539063 -0.11866211 8.61414063 -0.12575195 9.93164062 -0.13305664 C11.10130371 -0.14651123 12.2709668 -0.15996582 13.47607422 -0.17382812 C17.77392741 0.63568773 19.15646507 1.8500213 21.65820312 5.42553711 C22.36077066 8.4569353 22.35993139 11.38632682 22.32226562 14.48803711 C22.32704926 15.3569458 22.33183289 16.22585449 22.33676147 17.12109375 C22.34015537 18.95338762 22.33098856 20.78574245 22.31005859 22.61791992 C22.28328336 25.4171493 22.30982116 28.21236944 22.34179688 31.01147461 C22.33849268 32.7953376 22.33208625 34.5791981 22.32226562 36.36303711 C22.33238678 37.19649658 22.34250793 38.02995605 22.35293579 38.88867188 C22.26951894 43.03979307 21.98344781 44.9600048 19.54638672 48.44824219 C14.61534245 51.82411096 9.54763691 51.20459701 3.73828125 51.13232422 C1.66231752 51.11307526 -0.40695943 51.15251216 -2.48242188 51.19702148 C-4.4546875 51.1921875 -4.4546875 51.1921875 -6.46679688 51.18725586 C-8.26503906 51.18665161 -8.26503906 51.18665161 -10.09960938 51.18603516 C-13.64407593 50.35463355 -15.28507745 49.21847444 -17.43041992 46.26011658 C-19.10402654 42.89118748 -19.01505754 39.62031743 -18.93554688 35.92163086 C-18.93558716 35.12072525 -18.93562744 34.31981964 -18.93566895 33.49464417 C-18.93033053 31.80950021 -18.91281964 30.12435546 -18.88378906 28.43945312 C-18.84186114 25.86698015 -18.842731 23.2971231 -18.84960938 20.72436523 C-18.83911784 19.08176901 -18.82617992 17.4391862 -18.81054688 15.79663086 C-18.81034546 15.03192978 -18.81014404 14.2672287 -18.80993652 13.47935486 C-18.71034747 8.96661567 -18.15919276 5.99664447 -15.34179688 2.42553711 C-10.61619093 -0.72486685 -5.56300254 0.01551274 0 0 Z " fill="#191B1B" transform="translate(89.341796875,71.574462890625)"/>
<path d="M0 0 C1.23685547 -0.02900391 2.47371094 -0.05800781 3.74804688 -0.08789062 C4.94107422 -0.09626953 6.13410156 -0.10464844 7.36328125 -0.11328125 C9.0016394 -0.13515503 9.0016394 -0.13515503 10.6730957 -0.1574707 C14.38119592 0.42065296 16.01904986 1.72881982 18.6875 4.3125 C21.20769445 9.35288889 20.00066406 17.24190383 20.03759766 22.85131836 C20.05415215 24.6951968 20.08143569 26.53901119 20.11962891 28.38256836 C20.17445665 31.04314405 20.19627979 33.70221637 20.2109375 36.36328125 C20.23360687 37.18427811 20.25627625 38.00527496 20.27963257 38.85115051 C20.2643867 42.99142698 20.01331109 44.84413473 17.58666992 48.33251953 C14.04195979 50.75336999 12.04621838 50.94397459 7.77734375 50.94140625 C5.79831055 50.94430664 5.79831055 50.94430664 3.77929688 50.94726562 C3.09730225 50.93477783 2.41530762 50.92229004 1.71264648 50.90942383 C-0.37327551 50.87502844 -2.45497478 50.88879467 -4.54101562 50.90820312 C-14.6680696 50.83392156 -14.6680696 50.83392156 -17.67358398 48.40209961 C-21.93118216 42.9737095 -20.61638093 35.319578 -20.66259766 28.68310547 C-20.67913246 26.94306033 -20.70639007 25.20308241 -20.74462891 23.46337891 C-20.79958652 20.9491874 -20.82130068 18.43658746 -20.8359375 15.921875 C-20.85860687 15.14978699 -20.88127625 14.37769897 -20.90463257 13.58221436 C-20.88884974 9.51827601 -20.50363401 7.04821832 -17.90478516 3.83691406 C-12.74507846 -1.18770142 -6.8842196 0.05331094 0 0 Z " fill="#181A1A" transform="translate(91.3125,255.6875)"/>
<path d="M0 0 C1.92682617 -0.05607422 1.92682617 -0.05607422 3.89257812 -0.11328125 C5.13072266 -0.12488281 6.36886719 -0.13648437 7.64453125 -0.1484375 C8.77866455 -0.16825684 9.91279785 -0.18807617 11.08129883 -0.20849609 C15.13708987 0.5533793 16.59154833 2.25020521 19.1875 5.375 C20.75056827 8.50113655 20.37146478 11.83660623 20.390625 15.26953125 C20.39632507 16.0539006 20.40202515 16.83826996 20.40789795 17.64640808 C20.4173514 19.30828501 20.4238833 20.97018072 20.42773438 22.63208008 C20.43742229 25.16716538 20.46843404 27.70143379 20.5 30.23632812 C20.50653197 31.85155769 20.51178168 33.46679305 20.515625 35.08203125 C20.5279718 35.83740677 20.5403186 36.59278229 20.55303955 37.37104797 C20.53402345 41.89467864 20.01617773 44.80021088 17.1875 48.375 C12.13717311 51.74188459 6.24456081 50.78577901 0.3125 50.8125 C-0.96753906 50.84537109 -2.24757813 50.87824219 -3.56640625 50.91210938 C-14.06655909 50.97245508 -14.06655909 50.97245508 -17.1328125 48.03515625 C-19.93475114 43.59766737 -19.99935629 39.7275794 -20.05078125 34.63671875 C-20.058853 33.87833206 -20.06692474 33.11994537 -20.07524109 32.33857727 C-20.08906182 30.7339607 -20.09979296 29.12931498 -20.10766602 27.5246582 C-20.11918481 25.88850252 -20.13963529 24.25238438 -20.16918945 22.61645508 C-20.21197503 20.24795081 -20.22804944 17.88056205 -20.23828125 15.51171875 C-20.25578934 14.78651535 -20.27329742 14.06131195 -20.29133606 13.31413269 C-20.26966467 8.19852728 -19.0431823 5.30707301 -15.8125 1.375 C-11.24952522 -0.90648739 -5.00929441 0.05480083 0 0 Z " fill="#1B1C1C" transform="translate(458.8125,71.625)"/>
<path d="M0 0 C1.18464844 -0.03287109 2.36929687 -0.06574219 3.58984375 -0.09960938 C13.31580253 -0.1599169 13.31580253 -0.1599169 16.3828125 2.83984375 C19.29288019 7.17884602 19.30040108 10.44080934 19.328125 15.55078125 C19.33382507 16.35734665 19.33952515 17.16391205 19.34539795 17.99491882 C19.35485195 19.70387458 19.36138352 21.4128486 19.36523438 23.12182617 C19.3749232 25.72933041 19.405935 28.33604078 19.4375 30.94335938 C19.44403185 32.60416199 19.44928161 34.26497024 19.453125 35.92578125 C19.4654718 36.70303055 19.4778186 37.48027985 19.49053955 38.28108215 C19.47187716 42.84506913 18.98245823 45.82132834 16.125 49.4375 C11.91034426 51.54482787 6.44011802 50.70537337 1.80371094 50.73266602 C-0.23570992 50.74987939 -2.27350883 50.79376835 -4.3125 50.83789062 C-6.24222656 50.85045898 -6.24222656 50.85045898 -8.2109375 50.86328125 C-9.98283447 50.88515503 -9.98283447 50.88515503 -11.79052734 50.9074707 C-15.50311171 50.34179674 -16.62763153 49.38787947 -18.875 46.4375 C-20.08073315 42.82030056 -20.07521033 39.4680845 -20.11328125 35.69921875 C-20.121353 34.94083206 -20.12942474 34.18244537 -20.13774109 33.40107727 C-20.15156182 31.7964607 -20.16229296 30.19181498 -20.17016602 28.5871582 C-20.18168481 26.95100252 -20.20213529 25.31488438 -20.23168945 23.67895508 C-20.27447503 21.31045081 -20.29054944 18.94306205 -20.30078125 16.57421875 C-20.31828934 15.84901535 -20.33579742 15.12381195 -20.35383606 14.37663269 C-20.3321131 9.24885441 -19.12269689 6.36988816 -15.875 2.4375 C-11.02474558 -0.79600295 -5.70242261 0.02774152 0 0 Z " fill="#191B1B" transform="translate(458.875,255.5625)"/>
<path d="M0 0 C32.51073577 -0.09123947 65.02143466 -0.16203303 97.53226922 -0.20426132 C101.36998307 -0.20926418 105.20769668 -0.21444146 109.04541016 -0.21972656 C109.80943368 -0.2207758 110.57345719 -0.22182505 111.36063294 -0.22290608 C123.73355065 -0.24031396 136.10639405 -0.27185374 148.47926767 -0.30861118 C161.17385132 -0.34600999 173.86839603 -0.3682336 186.56303251 -0.37635398 C194.39709124 -0.38184397 202.23093997 -0.39918696 210.06493406 -0.43166587 C216.0708605 -0.45529825 222.07660607 -0.45782253 228.08258438 -0.45243073 C230.54728998 -0.45353293 233.01200338 -0.46151279 235.47666168 -0.4768219 C238.8379765 -0.49667983 242.19838782 -0.49195368 245.5597229 -0.48101807 C246.53832862 -0.49266943 247.51693433 -0.5043208 248.52519476 -0.51632524 C254.31121477 -0.46533352 257.6025838 0.129548 262 4 C263.375 6.75 263.375 6.75 264 9 C263.34 9 262.68 9 262 9 C262 110.64 262 212.28 262 317 C261.67 317 261.34 317 261 317 C261.0018986 316.3430726 261.0037972 315.68614519 261.00575334 315.0093109 C261.11755951 276.10441303 261.2033901 237.19953583 261.25532665 198.29450993 C261.26158044 193.6267596 261.26805203 188.9590096 261.2746582 184.29125977 C261.27596976 183.3619655 261.27728131 182.43267124 261.2786326 181.47521655 C261.30040976 166.41341935 261.33984395 151.35171723 261.38576398 136.2899765 C261.43246444 120.84382844 261.4602818 105.3977303 261.47044247 89.95151454 C261.47731497 80.41458166 261.49904769 70.87791749 261.53958233 61.34106729 C261.56594165 54.80791446 261.57401653 48.27490125 261.56750689 41.74169906 C261.56429329 37.96807135 261.5693382 34.1949143 261.59602737 30.42136955 C261.62470902 26.33644364 261.61498652 22.25252926 261.60127258 18.16752625 C261.61583679 16.96617985 261.630401 15.76483345 261.64540654 14.52708262 C261.6354513 13.43777345 261.62549606 12.34846428 261.61523914 11.22614574 C261.61713775 10.28254072 261.61903635 9.3389357 261.62099248 8.36673659 C261.19629886 5.79037385 261.19629886 5.79037385 258.75085402 4.19741344 C256.01805844 3.00786062 254.31999406 2.62242807 251.37109661 2.61523914 C250.46590871 2.6057826 249.5607208 2.59632606 248.62810296 2.58658296 C247.64269345 2.59143053 246.65728395 2.59627811 245.64201355 2.60127258 C244.58826847 2.59462576 243.53452339 2.58797893 242.44884664 2.58113068 C238.91265872 2.56245602 235.37680783 2.56510905 231.84057617 2.56762695 C229.30784628 2.55861255 226.77512076 2.54828613 224.24240112 2.53674316 C218.78691325 2.51483653 213.33152543 2.50207142 207.87599754 2.49761391 C199.98826744 2.49115334 192.1006528 2.46821763 184.21296922 2.44127061 C171.4155146 2.39799712 158.61806484 2.36803358 145.82055664 2.34643555 C133.38954275 2.32542754 120.95856864 2.29815401 108.52758789 2.26245117 C107.76124364 2.26025235 106.9948994 2.25805352 106.2053326 2.25578807 C102.36077916 2.24471846 98.51622609 2.23352564 94.67167318 2.22227156 C62.78114823 2.12907849 30.89060951 2.05770591 -1 2 C-0.67 1.34 -0.34 0.68 0 0 Z " fill="#322D27" transform="translate(147,71)"/>
<path d="M0 0 C4.37880504 1.99247799 8.41458971 4.46860942 12.5 7 C14.16289062 8.00160156 14.16289062 8.00160156 15.859375 9.0234375 C18.58280449 10.66688633 21.29538379 12.32583494 24 14 C23.67 14.66 23.34 15.32 23 16 C22.3702124 15.61142822 21.7404248 15.22285645 21.09155273 14.82250977 C18.21425206 13.05680334 15.3261404 11.30958776 12.4375 9.5625 C11.44685547 8.95083984 10.45621094 8.33917969 9.43554688 7.70898438 C2.19213709 3.31412495 2.19213709 3.31412495 -6 2 C-9.57387602 3.58838934 -10.81089572 4.71634358 -13 8 C-13.30633619 11.03533028 -13.30633619 11.03533028 -13.26069641 14.55992126 C-13.26452196 15.22936486 -13.26834751 15.89880846 -13.27228898 16.58853823 C-13.28262482 18.83636726 -13.27862581 21.08394113 -13.2746582 23.33178711 C-13.27900436 24.94148496 -13.28418719 26.55118073 -13.29014587 28.16087341 C-13.30355749 32.53688108 -13.30411215 36.91280249 -13.30158257 41.2888267 C-13.30051433 44.9395545 -13.30539248 48.59026474 -13.310188 52.24098879 C-13.32129066 60.85232289 -13.32171632 69.46361337 -13.31567383 78.07495117 C-13.30963231 86.96421056 -13.3219478 95.85331173 -13.3432439 104.74254411 C-13.36084601 112.36979049 -13.36686346 119.99698644 -13.36360615 127.62425238 C-13.36179093 132.18176006 -13.36445325 136.73915488 -13.37832069 141.29664421 C-13.39087186 145.58205069 -13.38898079 149.86721012 -13.37590981 154.15261269 C-13.37353854 155.72640439 -13.37629836 157.30021334 -13.38453293 158.87398529 C-13.39495607 161.02064398 -13.38693645 163.16646686 -13.3742218 165.31309509 C-13.37447341 167.11580824 -13.37447341 167.11580824 -13.37473011 168.95493984 C-12.96262896 172.30367743 -12.40135945 173.66459599 -10 176 C-6.40932038 177.28842537 -6.40932038 177.28842537 -3 178 C-3 178.33 -3 178.66 -3 179 C-5.91818671 179.34740318 -8.13765057 179.50109494 -10.734375 177.9921875 C-12.375 176.6875 -12.375 176.6875 -15 174 C-15 173.01 -15 172.02 -15 171 C-15.66 171 -16.32 171 -17 171 C-17 117.54 -17 64.08 -17 9 C-16.34 9 -15.68 9 -15 9 C-14.773125 8.2575 -14.54625 7.515 -14.3125 6.75 C-11.33568531 0.51286446 -6.62231562 -1.33456252 0 0 Z " fill="#323028" transform="translate(220,143)"/>
<path d="M0 0 C197.01 0.495 197.01 0.495 398 1 C398 1.33 398 1.66 398 2 C266.99 2.33 135.98 2.66 1 3 C0.67 2.01 0.34 1.02 0 0 Z " fill="#F9E7BF" transform="translate(73,40)"/>
<path d="M0 0 C0.33 0.66 0.66 1.32 1 2 C0.01 3.485 0.01 3.485 -1 5 C-1.20819682 7.8662688 -1.30402194 10.63301331 -1.30078125 13.5 C-1.30506638 14.33208984 -1.3093515 15.16417969 -1.31376648 16.02148438 C-1.31950693 17.77993866 -1.32001213 19.53841669 -1.31567383 21.296875 C-1.31251175 23.98999399 -1.33598298 26.68201668 -1.36132812 29.375 C-1.36360091 31.08333195 -1.36430471 32.79166685 -1.36328125 34.5 C-1.372491 35.30630859 -1.38170074 36.11261719 -1.39118958 36.94335938 C-1.46604196 41.10630304 -1.46604196 41.10630304 0.3298645 44.70930481 C2.99655121 46.77014342 5.54155942 46.44180505 8.85546875 46.51171875 C9.51710526 46.52966995 10.17874176 46.54762115 10.86042786 46.56611633 C12.96938747 46.62020898 15.07812099 46.65410931 17.1875 46.6875 C18.61917208 46.72067427 20.05081433 46.75516405 21.48242188 46.79101562 C24.9880639 46.87593257 28.49378473 46.94274921 32 47 C31.505 47.99 31.505 47.99 31 49 C26.96166211 49.0992502 22.92380128 49.17164562 18.88452148 49.21972656 C17.51199977 49.2397799 16.13956283 49.26703028 14.76733398 49.30175781 C12.78927956 49.35054552 10.81058881 49.37088876 8.83203125 49.390625 C7.64327393 49.41157227 6.4545166 49.43251953 5.22973633 49.45410156 C1.36426119 48.910615 -0.24650481 47.70847978 -3 45 C-4.59006531 41.81986937 -4.18417077 38.38029343 -4.203125 34.88671875 C-4.20882507 34.08015335 -4.21452515 33.27358795 -4.22039795 32.44258118 C-4.22985195 30.73362542 -4.23638352 29.0246514 -4.24023438 27.31567383 C-4.2499232 24.70816959 -4.280935 22.10145922 -4.3125 19.49414062 C-4.31903185 17.83333801 -4.32428161 16.17252976 -4.328125 14.51171875 C-4.3466452 13.3458448 -4.3466452 13.3458448 -4.36553955 12.15641785 C-4.34500702 7.13507627 -3.61965535 3.61965535 0 0 Z " fill="#050505" transform="translate(75,346)"/>
<path d="M0 0 C1.12857422 -0.03738281 2.25714844 -0.07476562 3.41992188 -0.11328125 C4.51498047 -0.12488281 5.61003906 -0.13648438 6.73828125 -0.1484375 C7.73512939 -0.16825684 8.73197754 -0.18807617 9.7590332 -0.20849609 C13.69696618 0.57613582 16.40965855 2.08572569 18.6875 5.375 C19.42681126 8.48904631 19.25247738 11.43486531 19.0546875 14.61328125 C19.00865891 15.93443184 19.00865891 15.93443184 18.96170044 17.28227234 C18.85740933 20.08604839 18.71058158 22.88572924 18.5625 25.6875 C18.48416386 27.59168314 18.40861107 29.49598296 18.3359375 31.40039062 C18.15202188 36.0605617 17.92994839 40.71752217 17.6875 45.375 C17.3575 45.375 17.0275 45.375 16.6875 45.375 C16.66244385 44.23957764 16.6373877 43.10415527 16.61157227 41.93432617 C16.51744424 37.72424919 16.41723663 33.51433512 16.31518555 29.30444336 C16.27185713 27.48189096 16.23018053 25.65929852 16.19018555 23.83666992 C16.13243238 21.21781339 16.06875244 18.59915805 16.00390625 15.98046875 C15.98719376 15.16474899 15.97048126 14.34902924 15.95326233 13.5085907 C15.86736755 10.23320456 15.72997866 7.50243599 14.6875 4.375 C10.47918132 4.34585652 6.27088878 4.32815288 2.0625 4.3125 C0.87269531 4.30412109 -0.31710937 4.29574219 -1.54296875 4.28710938 C-2.69667969 4.28388672 -3.85039062 4.28066406 -5.0390625 4.27734375 C-6.09689941 4.27210693 -7.15473633 4.26687012 -8.24462891 4.26147461 C-11.34612346 4.37624422 -14.26597657 4.79803718 -17.3125 5.375 C-16.5 3.4375 -16.5 3.4375 -15.3125 1.375 C-10.34133502 -0.28205499 -5.20582944 0.0647418 0 0 Z " fill="#2A2722" transform="translate(459.3125,343.625)"/>
<path d="M0 0 C1.32 0.66 2.64 1.32 4 2 C4.07432418 7.03536777 4.12868401 12.07041408 4.16479492 17.10620117 C4.1798534 18.81817184 4.20030455 20.53010411 4.22631836 22.24194336 C4.2628319 24.70696505 4.27975562 27.17147535 4.29296875 29.63671875 C4.30845261 30.39836838 4.32393646 31.16001801 4.33988953 31.94474792 C4.34131416 36.47384264 3.85418926 39.42332928 1 43 C-1.1875 43.8125 -1.1875 43.8125 -3 44 C-2.67 43.34 -2.34 42.68 -2 42 C-1.34 42 -0.68 42 0 42 C0 28.14 0 14.28 0 0 Z " fill="#28241E" transform="translate(475,77)"/>
<path d="M0 0 C0.66 0.33 1.32 0.66 2 1 C2.07432418 6.03536777 2.12868401 11.07041408 2.16479492 16.10620117 C2.1798534 17.81817184 2.20030455 19.53010411 2.22631836 21.24194336 C2.2628319 23.70696505 2.27975562 26.17147535 2.29296875 28.63671875 C2.30845261 29.39836838 2.32393646 30.16001801 2.33988953 30.94474792 C2.34132109 35.49587017 1.74412794 38.33799767 -1 42 C-1.66 41.34 -2.32 40.68 -3 40 C-2.34 40 -1.68 40 -1 40 C-1.00523682 38.82381104 -1.01047363 37.64762207 -1.01586914 36.43579102 C-1.03391663 32.08797969 -1.04543108 27.7401717 -1.05493164 23.39233398 C-1.05997244 21.5075627 -1.06680498 19.62279535 -1.07543945 17.73803711 C-1.08751617 15.03498364 -1.09323068 12.33198169 -1.09765625 9.62890625 C-1.10281754 8.78099014 -1.10797882 7.93307404 -1.11329651 7.0594635 C-1.11349195 5.03928932 -1.06206211 3.01922066 -1 1 C-0.67 0.67 -0.34 0.34 0 0 Z " fill="#282520" transform="translate(110,351)"/>
<path d="M0 0 C0.66 0.33 1.32 0.66 2 1 C2 12.88 2 24.76 2 37 C1.01 36.67 0.02 36.34 -1 36 C-1.02465098 31.03377651 -1.04283649 26.06758834 -1.05493164 21.10131836 C-1.0599719 19.41055684 -1.06680405 17.71979971 -1.07543945 16.02905273 C-1.08751857 13.60399293 -1.09323123 11.17899056 -1.09765625 8.75390625 C-1.10281754 7.99348526 -1.10797882 7.23306427 -1.11329651 6.44960022 C-1.11349238 4.6326743 -1.06197277 2.81586873 -1 1 C-0.67 0.67 -0.34 0.34 0 0 Z " fill="#2C2820" transform="translate(440,263)"/>
<path d="M0 0 C21.72340426 -0.19148936 21.72340426 -0.19148936 31 1 C30.01 1.33 29.02 1.66 28 2 C28 2.66 28 3.32 28 4 C24.7 3.67 21.4 3.34 18 3 C18 2.34 18 1.68 18 1 C12.06 1 6.12 1 0 1 C0 0.67 0 0.34 0 0 Z " fill="#2C2C2B" transform="translate(457,15)"/>
<path d="M0 0 C0.66 0.33 1.32 0.66 2 1 C2.33 13.87 2.66 26.74 3 40 C2.34 39.67 1.68 39.34 1 39 C0.97494385 37.95545654 0.9498877 36.91091309 0.92407227 35.8347168 C0.82991461 31.96007984 0.72971428 28.08561866 0.62768555 24.21118164 C0.58436833 22.53414013 0.54269093 20.85705542 0.50268555 19.17993164 C0.44490515 16.76956159 0.3812332 14.3594083 0.31640625 11.94921875 C0.29969376 11.19912033 0.28298126 10.44902191 0.26576233 9.67619324 C0.17655767 6.54322008 -0.00236453 3.9929064 -1 1 C-0.67 0.67 -0.34 0.34 0 0 Z " fill="#262926" transform="translate(72,262)"/>
<path d="M0 0 C1.49660156 0.57427734 1.49660156 0.57427734 3.0234375 1.16015625 C4.02632812 1.54042969 5.02921875 1.92070312 6.0625 2.3125 C6.83335938 2.61285156 7.60421875 2.91320312 8.3984375 3.22265625 C8.3984375 3.88265625 8.3984375 4.54265625 8.3984375 5.22265625 C9.0584375 5.55265625 9.7184375 5.88265625 10.3984375 6.22265625 C8.98187957 6.24989775 7.56516705 6.26916092 6.1484375 6.28515625 C4.96507812 6.30255859 4.96507812 6.30255859 3.7578125 6.3203125 C1.49152748 6.22650931 -0.430452 5.85506688 -2.6015625 5.22265625 C-2.6015625 4.23265625 -2.6015625 3.24265625 -2.6015625 2.22265625 C-3.2615625 1.56265625 -3.9215625 0.90265625 -4.6015625 0.22265625 C-2.6015625 -0.77734375 -2.6015625 -0.77734375 0 0 Z M0.3984375 3.22265625 C1.0584375 3.88265625 1.7184375 4.54265625 2.3984375 5.22265625 C2.3984375 4.56265625 2.3984375 3.90265625 2.3984375 3.22265625 C1.7384375 3.22265625 1.0784375 3.22265625 0.3984375 3.22265625 Z " fill="#343433" transform="translate(53.6015625,441.77734375)"/>
<path d="M0 0 C0.639375 0.680625 1.27875 1.36125 1.9375 2.0625 C7.23861059 7.34855061 13.11839947 12.00032797 20 15 C17 16 17 16 14.765625 15.03125 C9.29169714 11.69929391 3.83813924 8.24884605 0 3 C0 2.01 0 1.02 0 0 Z " fill="#F5F1E7" transform="translate(50,408)"/>
<path d="M0 0 C0.680625 0.61875 1.36125 1.2375 2.0625 1.875 C5.45881234 4.3319068 7.96018821 5.04945605 12 6 C12 6.33 12 6.66 12 7 C7.03567635 7.29201904 3.96298426 7.14707573 0 4 C-0.33 3.01 -0.66 2.02 -1 1 C-0.67 0.67 -0.34 0.34 0 0 Z " fill="#14100C" transform="translate(73,207)"/>
<path d="M0 0 C0 0.33 0 0.66 0 1 C-1.60875 1.2165625 -1.60875 1.2165625 -3.25 1.4375 C-6.73404725 1.88025619 -6.73404725 1.88025619 -9 2.5625 C-11.99783506 3.21827642 -14.94439182 3.0587617 -18 3 C-12.39004157 -0.73997229 -6.52699931 -0.11406407 0 0 Z " fill="#40403F" transform="translate(83,15)"/>
<path d="M0 0 C1.32 0.33 2.64 0.66 4 1 C4.33 2.98 4.66 4.96 5 7 C4.01 7.495 4.01 7.495 3 8 C0 2.25 0 2.25 0 0 Z " fill="#ECE4CE" transform="translate(45,400)"/>
<path d="M0 0 C0.66 0.33 1.32 0.66 2 1 C-1.32307692 5.8 -1.32307692 5.8 -4.75 6.8125 C-5.4925 6.874375 -6.235 6.93625 -7 7 C-4.66666667 4.66666667 -2.33333333 2.33333333 0 0 Z " fill="#2B2C2B" transform="translate(44,27)"/>
<path d="M0 0 C0.33 0.99 0.66 1.98 1 3 C-0.32 4.32 -1.64 5.64 -3 7 C-3.33 6.01 -3.66 5.02 -4 4 C-2.68 2.68 -1.36 1.36 0 0 Z " fill="#363535" transform="translate(522,421)"/>
<path d="M0 0 C0.66 0 1.32 0 2 0 C3.2890625 1.53125 3.2890625 1.53125 4.625 3.5 C5.07101563 4.1496875 5.51703125 4.799375 5.9765625 5.46875 C6.31429687 5.9740625 6.65203125 6.479375 7 7 C4.625 6.3125 4.625 6.3125 2 5 C0.6875 2.375 0.6875 2.375 0 0 Z " fill="#18140D" transform="translate(140,388)"/>
<path d="M0 0 C4.62 0 9.24 0 14 0 C14 0.33 14 0.66 14 1 C9.38 1 4.76 1 0 1 C0 0.67 0 0.34 0 0 Z " fill="#484848" transform="translate(461,451)"/>
<path d="M0 0 C2.64 0 5.28 0 8 0 C8 0.33 8 0.66 8 1 C5.36 1 2.72 1 0 1 C0 0.67 0 0.34 0 0 Z " fill="#3F3F3F" transform="translate(237,451)"/>
<path d="M0 0 C2.64 0 5.28 0 8 0 C8 0.33 8 0.66 8 1 C5.36 1 2.72 1 0 1 C0 0.67 0 0.34 0 0 Z " fill="#4A4A4A" transform="translate(223,451)"/>
<path d="M0 0 C2.31 0 4.62 0 7 0 C7 0.33 7 0.66 7 1 C4.69 1.33 2.38 1.66 0 2 C0 1.34 0 0.68 0 0 Z " fill="#2F2F2F" transform="translate(215,451)"/>
<path d="M0 0 C2.64 0 5.28 0 8 0 C8 0.33 8 0.66 8 1 C5.36 1 2.72 1 0 1 C0 0.67 0 0.34 0 0 Z " fill="#353535" transform="translate(75,451)"/>
<path d="M0 0 C2.31 0 4.62 0 7 0 C7 0.33 7 0.66 7 1 C4.69 1 2.38 1 0 1 C0 0.67 0 0.34 0 0 Z " fill="#2A2A2A" transform="translate(453,451)"/>
<path d="M0 0 C2.31 0 4.62 0 7 0 C7 0.33 7 0.66 7 1 C4.69 1 2.38 1 0 1 C0 0.67 0 0.34 0 0 Z " fill="#545454" transform="translate(303,451)"/>
<path d="M0 0 C2.31 0 4.62 0 7 0 C7 0.33 7 0.66 7 1 C4.69 1 2.38 1 0 1 C0 0.67 0 0.34 0 0 Z " fill="#3C3C3C" transform="translate(295,451)"/>
<path d="M0 0 C2.31 0 4.62 0 7 0 C7 0.33 7 0.66 7 1 C4.69 1 2.38 1 0 1 C0 0.67 0 0.34 0 0 Z " fill="#2A2A2A" transform="translate(199,451)"/>
<path d="M0 0 C2.31 0 4.62 0 7 0 C7 0.33 7 0.66 7 1 C4.69 1 2.38 1 0 1 C0 0.67 0 0.34 0 0 Z " fill="#424242" transform="translate(191,451)"/>
<path d="M0 0 C2.31 0 4.62 0 7 0 C7 0.33 7 0.66 7 1 C4.69 1 2.38 1 0 1 C0 0.67 0 0.34 0 0 Z " fill="#606060" transform="translate(181,451)"/>
<path d="M0 0 C2.31 0 4.62 0 7 0 C7 0.33 7 0.66 7 1 C4.69 1 2.38 1 0 1 C0 0.67 0 0.34 0 0 Z " fill="#424242" transform="translate(91,451)"/>
<path d="M0 0 C1.65 0 3.3 0 5 0 C4.67 0.66 4.34 1.32 4 2 C2.68 1.34 1.36 0.68 0 0 Z " fill="#4D4D4D" transform="translate(441,451)"/>
<path d="M0 0 C1.98 0 3.96 0 6 0 C6 0.33 6 0.66 6 1 C4.02 1 2.04 1 0 1 C0 0.67 0 0.34 0 0 Z " fill="#2A2A2A" transform="translate(389,451)"/>
<path d="M0 0 C1.98 0 3.96 0 6 0 C6 0.33 6 0.66 6 1 C4.02 1 2.04 1 0 1 C0 0.67 0 0.34 0 0 Z " fill="#0E0E0E" transform="translate(361,451)"/>
<path d="M0 0 C1.98 0 3.96 0 6 0 C6 0.33 6 0.66 6 1 C4.02 1 2.04 1 0 1 C0 0.67 0 0.34 0 0 Z " fill="#4D4D4D" transform="translate(329,451)"/>
<path d="M0 0 C1.98 0 3.96 0 6 0 C6 0.33 6 0.66 6 1 C4.02 1 2.04 1 0 1 C0 0.67 0 0.34 0 0 Z " fill="#2A2A2A" transform="translate(254,451)"/>
<path d="M0 0 C1.98 0 3.96 0 6 0 C6 0.33 6 0.66 6 1 C4.02 1 2.04 1 0 1 C0 0.67 0 0.34 0 0 Z " fill="#3F3F3F" transform="translate(168,451)"/>
<path d="M0 0 C1.98 0 3.96 0 6 0 C6 0.33 6 0.66 6 1 C4.02 1 2.04 1 0 1 C0 0.67 0 0.34 0 0 Z " fill="#313131" transform="translate(160,451)"/>
<path d="M0 0 C1.65 0 3.3 0 5 0 C5 0.33 5 0.66 5 1 C3.35 1 1.7 1 0 1 C0 0.67 0 0.34 0 0 Z " fill="#5D5D5D" transform="translate(337,451)"/>
<path d="M0 0 C1.65 0 3.3 0 5 0 C5 0.33 5 0.66 5 1 C3.35 1 1.7 1 0 1 C0 0.67 0 0.34 0 0 Z " fill="#5D5D5D" transform="translate(321,451)"/>
<path d="M0 0 C1.65 0 3.3 0 5 0 C5 0.33 5 0.66 5 1 C3.35 1 1.7 1 0 1 C0 0.67 0 0.34 0 0 Z " fill="#191919" transform="translate(247,451)"/>
<path d="M0 0 C1.65 0 3.3 0 5 0 C5 0.33 5 0.66 5 1 C3.35 1 1.7 1 0 1 C0 0.67 0 0.34 0 0 Z " fill="#5D5D5D" transform="translate(175,451)"/>
<path d="M0 0 C1.65 0 3.3 0 5 0 C5 0.33 5 0.66 5 1 C3.35 1 1.7 1 0 1 C0 0.67 0 0.34 0 0 Z " fill="#767676" transform="translate(129,451)"/>
<path d="M0 0 C1.65 0 3.3 0 5 0 C5 0.33 5 0.66 5 1 C3.35 1 1.7 1 0 1 C0 0.67 0 0.34 0 0 Z " fill="#6E6E6E" transform="translate(121,451)"/>
<path d="M0 0 C4 1 4 1 4 1 Z " fill="#3F3F3F" transform="translate(432,451)"/>
<path d="M0 0 C4 1 4 1 4 1 Z " fill="#000000" transform="translate(410,451)"/>
<path d="M0 0 C4 1 4 1 4 1 Z " fill="#1F1F1F" transform="translate(376,451)"/>
<path d="M0 0 C4 1 4 1 4 1 Z " fill="#3F3F3F" transform="translate(369,451)"/>
<path d="M0 0 C4 1 4 1 4 1 Z " fill="#545454" transform="translate(288,451)"/>
<path d="M0 0 C4 1 4 1 4 1 Z " fill="#7F7F7F" transform="translate(272,451)"/>
<path d="M0 0 C4 1 4 1 4 1 Z " fill="#7F7F7F" transform="translate(232,451)"/>
<path d="M0 0 C4 1 4 1 4 1 Z " fill="#5F5F5F" transform="translate(144,451)"/>
<path d="M0 0 C1.485 0.99 1.485 0.99 3 2 C2.01 2 1.02 2 0 2 C0 1.34 0 0.68 0 0 Z " fill="#3F3F3F" transform="translate(67,450)"/>
<path d="M0 0 C3 1 3 1 3 1 Z " fill="#717171" transform="translate(448,451)"/>
<path d="M0 0 C3 1 3 1 3 1 Z " fill="#545454" transform="translate(427,451)"/>
<path d="M0 0 C3 1 3 1 3 1 Z " fill="#545454" transform="translate(417,451)"/>
<path d="M0 0 C3 1 3 1 3 1 Z " fill="#545454" transform="translate(402,451)"/>
<path d="M0 0 C3 1 3 1 3 1 Z " fill="#7F7F7F" transform="translate(354,451)"/>
<path d="M0 0 C3 1 3 1 3 1 Z " fill="#717171" transform="translate(312,451)"/>
<path d="M0 0 C3 1 3 1 3 1 Z " fill="#383838" transform="translate(283,451)"/>
<path d="M0 0 C3 1 3 1 3 1 Z " fill="#2A2A2A" transform="translate(265,451)"/>
<path d="M0 0 C3 1 3 1 3 1 Z " fill="#717171" transform="translate(113,451)"/>
<path d="M0 0 C3 1 3 1 3 1 Z " fill="#545454" transform="translate(71,451)"/>
<path d="M0 0 C3 1 3 1 3 1 Z " fill="#464646" transform="translate(490,447)"/>
<path d="" fill="#2A2A2A" transform="translate(0,0)"/>
<path d="" fill="#5B5B5B" transform="translate(0,0)"/>
<path d="M0 0 C0.66 0 1.32 0 2 0 C1.67 0.66 1.34 1.32 1 2 C0.67 1.34 0.34 0.68 0 0 Z " fill="#545454" transform="translate(529,56)"/>
<path d="" fill="#3F3F3F" transform="translate(0,0)"/>
<path d="" fill="#3F3F3F" transform="translate(0,0)"/>
<path d="M0 0 C2 1 2 1 2 1 Z " fill="#3F3F3F" transform="translate(386,451)"/>
<path d="M0 0 C2 1 2 1 2 1 Z " fill="#2A2A2A" transform="translate(346,451)"/>
<path d="M0 0 C2 1 2 1 2 1 Z " fill="#3F3F3F" transform="translate(261,451)"/>
<path d="M0 0 C2 1 2 1 2 1 Z " fill="#2A2A2A" transform="translate(212,451)"/>
<path d="M0 0 C2 1 2 1 2 1 Z " fill="#3F3F3F" transform="translate(153,451)"/>
<path d="M0 0 C2 1 2 1 2 1 Z " fill="#3F3F3F" transform="translate(140,451)"/>
<path d="M0 0 C2 1 2 1 2 1 Z " fill="#6A6A6A" transform="translate(137,451)"/>
<path d="M0 0 C2 1 2 1 2 1 Z " fill="#3F3F3F" transform="translate(117,451)"/>
<path d="M0 0 C2 1 2 1 2 1 Z " fill="#3F3F3F" transform="translate(108,451)"/>
<path d="M0 0 C2 1 2 1 2 1 Z " fill="#3F3F3F" transform="translate(105,451)"/>
<path d="M0 0 C2 1 2 1 2 1 Z " fill="#3F3F3F" transform="translate(101,451)"/>
<path d="M0 0 C2 1 2 1 2 1 Z " fill="#000000" transform="translate(49,444)"/>
<path d="" fill="#7F7F7F" transform="translate(0,0)"/>
<path d="" fill="#2A2A2A" transform="translate(0,0)"/>
<path d="M0 0 C2 1 2 1 2 1 Z " fill="#6A6A6A" transform="translate(27,425)"/>
<path d="" fill="#7F7F7F" transform="translate(0,0)"/>
<path d="" fill="#3F3F3F" transform="translate(0,0)"/>
<path d="" fill="#3F3F3F" transform="translate(0,0)"/>
<path d="" fill="#7F7F7F" transform="translate(0,0)"/>
<path d="" fill="#000000" transform="translate(0,0)"/>
<path d="" fill="#6A6A6A" transform="translate(0,0)"/>
<path d="" fill="#000000" transform="translate(0,0)"/>
<path d="M0 0 C2 1 2 1 2 1 Z " fill="#6A6A6A" transform="translate(59,17)"/>
<path d="M0 0 C2 1 2 1 2 1 Z " fill="#000000" transform="translate(164,12)"/>
<path d="" fill="#000000" transform="translate(0,0)"/>
<path d="" fill="#000000" transform="translate(0,0)"/>
<path d="" fill="#000000" transform="translate(0,0)"/>
<path d="" fill="#000000" transform="translate(0,0)"/>
<path d="" fill="#000000" transform="translate(0,0)"/>
<path d="" fill="#000000" transform="translate(0,0)"/>
<path d="" fill="#000000" transform="translate(0,0)"/>
<path d="" fill="#000000" transform="translate(0,0)"/>
<path d="" fill="#000000" transform="translate(0,0)"/>
<path d="" fill="#000000" transform="translate(0,0)"/>
<path d="" fill="#000000" transform="translate(0,0)"/>
<path d="" fill="#000000" transform="translate(0,0)"/>
<path d="" fill="#555555" transform="translate(0,0)"/>
<path d="" fill="#000000" transform="translate(0,0)"/>
<path d="" fill="#000000" transform="translate(0,0)"/>
<path d="" fill="#000000" transform="translate(0,0)"/>
<path d="" fill="#000000" transform="translate(0,0)"/>
<path d="" fill="#000000" transform="translate(0,0)"/>
<path d="" fill="#7F7F7F" transform="translate(0,0)"/>
<path d="" fill="#7F7F7F" transform="translate(0,0)"/>
<path d="" fill="#000000" transform="translate(0,0)"/>
<path d="" fill="#7F7F7F" transform="translate(0,0)"/>
<path d="" fill="#7F7F7F" transform="translate(0,0)"/>
<path d="" fill="#000000" transform="translate(0,0)"/>
<path d="" fill="#000000" transform="translate(0,0)"/>
<path d="" fill="#000000" transform="translate(0,0)"/>
<path d="" fill="#000000" transform="translate(0,0)"/>
<path d="" fill="#7F7F7F" transform="translate(0,0)"/>
<path d="" fill="#000000" transform="translate(0,0)"/>
<path d="" fill="#000000" transform="translate(0,0)"/>
<path d="" fill="#000000" transform="translate(0,0)"/>
<path d="" fill="#000000" transform="translate(0,0)"/>
<path d="" fill="#000000" transform="translate(0,0)"/>
<path d="" fill="#000000" transform="translate(0,0)"/>
<path d="" fill="#000000" transform="translate(0,0)"/>
<path d="" fill="#000000" transform="translate(0,0)"/>
<path d="" fill="#000000" transform="translate(0,0)"/>
<path d="" fill="#000000" transform="translate(0,0)"/>
<path d="" fill="#000000" transform="translate(0,0)"/>
<path d="" fill="#000000" transform="translate(0,0)"/>
<path d="" fill="#000000" transform="translate(0,0)"/>
<path d="" fill="#000000" transform="translate(0,0)"/>
<path d="" fill="#000000" transform="translate(0,0)"/>
<path d="" fill="#000000" transform="translate(0,0)"/>
<path d="" fill="#7F7F7F" transform="translate(0,0)"/>
<path d="" fill="#7F7F7F" transform="translate(0,0)"/>
<path d="" fill="#000000" transform="translate(0,0)"/>
<path d="" fill="#7F7F7F" transform="translate(0,0)"/>
<path d="" fill="#000000" transform="translate(0,0)"/>
<path d="" fill="#7F7F7F" transform="translate(0,0)"/>
<path d="" fill="#7F7F7F" transform="translate(0,0)"/>
<path d="" fill="#000000" transform="translate(0,0)"/>
<path d="" fill="#000000" transform="translate(0,0)"/>
<path d="" fill="#7F7F7F" transform="translate(0,0)"/>
<path d="" fill="#7F7F7F" transform="translate(0,0)"/>
<path d="" fill="#000000" transform="translate(0,0)"/>
<path d="" fill="#000000" transform="translate(0,0)"/>
<path d="" fill="#000000" transform="translate(0,0)"/>
<path d="" fill="#7F7F7F" transform="translate(0,0)"/>
<path d="" fill="#000000" transform="translate(0,0)"/>
<path d="" fill="#000000" transform="translate(0,0)"/>
<path d="" fill="#000000" transform="translate(0,0)"/>
<path d="" fill="#000000" transform="translate(0,0)"/>
<path d="" fill="#7F7F7F" transform="translate(0,0)"/>
<path d="" fill="#666666" transform="translate(0,0)"/>
<path d="" fill="#7F7F7F" transform="translate(0,0)"/>
<path d="" fill="#7F7F7F" transform="translate(0,0)"/>
<path d="" fill="#000000" transform="translate(0,0)"/>
<path d="" fill="#000000" transform="translate(0,0)"/>
<path d="" fill="#000000" transform="translate(0,0)"/>
<path d="" fill="#7F7F7F" transform="translate(0,0)"/>
<path d="" fill="#000000" transform="translate(0,0)"/>
<path d="" fill="#000000" transform="translate(0,0)"/>
<path d="" fill="#000000" transform="translate(0,0)"/>
<path d="" fill="#7F7F7F" transform="translate(0,0)"/>
<path d="" fill="#000000" transform="translate(0,0)"/>
<path d="" fill="#000000" transform="translate(0,0)"/>
<path d="" fill="#000000" transform="translate(0,0)"/>
<path d="" fill="#000000" transform="translate(0,0)"/>
<path d="" fill="#000000" transform="translate(0,0)"/>
<path d="" fill="#000000" transform="translate(0,0)"/>
<path d="" fill="#000000" transform="translate(0,0)"/>
<path d="" fill="#000000" transform="translate(0,0)"/>
<path d="" fill="#7F7F7F" transform="translate(0,0)"/>
<path d="" fill="#000000" transform="translate(0,0)"/>
<path d="" fill="#000000" transform="translate(0,0)"/>
<path d="" fill="#7F7F7F" transform="translate(0,0)"/>
<path d="" fill="#555555" transform="translate(0,0)"/>
<path d="" fill="#000000" transform="translate(0,0)"/>
<path d="" fill="#000000" transform="translate(0,0)"/>
<path d="" fill="#000000" transform="translate(0,0)"/>
<path d="" fill="#7F7F7F" transform="translate(0,0)"/>
<path d="" fill="#7F7F7F" transform="translate(0,0)"/>
<path d="" fill="#000000" transform="translate(0,0)"/>
<path d="" fill="#7F7F7F" transform="translate(0,0)"/>
<path d="" fill="#000000" transform="translate(0,0)"/>
<path d="" fill="#000000" transform="translate(0,0)"/>
<path d="" fill="#7F7F7F" transform="translate(0,0)"/>
<path d="" fill="#000000" transform="translate(0,0)"/>
<path d="" fill="#000000" transform="translate(0,0)"/>
<path d="" fill="#000000" transform="translate(0,0)"/>
<path d="" fill="#000000" transform="translate(0,0)"/>
<path d="" fill="#7F7F7F" transform="translate(0,0)"/>
<path d="" fill="#000000" transform="translate(0,0)"/>
<path d="" fill="#7F7F7F" transform="translate(0,0)"/>
<path d="" fill="#000000" transform="translate(0,0)"/>
<path d="" fill="#7F7F7F" transform="translate(0,0)"/>
<path d="" fill="#000000" transform="translate(0,0)"/>
<path d="" fill="#7F7F7F" transform="translate(0,0)"/>
<path d="" fill="#000000" transform="translate(0,0)"/>
<path d="" fill="#000000" transform="translate(0,0)"/>
<path d="" fill="#7F7F7F" transform="translate(0,0)"/>
</svg>
